<mxfile host="app.diagrams.net" modified="2023-09-18T21:42:02.191Z" agent="Mozilla/5.0 (Windows NT 10.0; Win64; x64) AppleWebKit/537.36 (KHTML, like Gecko) Chrome/117.0.0.0 Safari/537.36 Edg/117.0.2045.31" etag="qh82tbToZ4sKpok17cYT" version="21.7.5" type="google">
  <diagram id="R2lEEEUBdFMjLlhIrx00" name="Page-1">
    <mxGraphModel dx="1042" dy="1669" grid="1" gridSize="10" guides="1" tooltips="1" connect="1" arrows="1" fold="1" page="1" pageScale="1" pageWidth="850" pageHeight="1100" math="0" shadow="0" extFonts="Permanent Marker^https://fonts.googleapis.com/css?family=Permanent+Marker">
      <root>
        <mxCell id="0" />
        <mxCell id="1" parent="0" />
        <mxCell id="-tTLAuIsC5wt0zYna_3A-51" value="" style="edgeStyle=orthogonalEdgeStyle;rounded=0;orthogonalLoop=1;jettySize=auto;html=1;" parent="1" source="-tTLAuIsC5wt0zYna_3A-10" target="-tTLAuIsC5wt0zYna_3A-50" edge="1">
          <mxGeometry relative="1" as="geometry" />
        </mxCell>
        <mxCell id="-tTLAuIsC5wt0zYna_3A-10" value="Festival Goer" style="whiteSpace=wrap;html=1;align=center;" parent="1" vertex="1">
          <mxGeometry x="10" y="170" width="100" height="40" as="geometry" />
        </mxCell>
        <mxCell id="-tTLAuIsC5wt0zYna_3A-11" value="Vendor" style="whiteSpace=wrap;html=1;align=center;" parent="1" vertex="1">
          <mxGeometry x="390" y="-50" width="100" height="40" as="geometry" />
        </mxCell>
        <mxCell id="-tTLAuIsC5wt0zYna_3A-12" value="Workshop" style="whiteSpace=wrap;html=1;align=center;" parent="1" vertex="1">
          <mxGeometry x="400" y="420" width="100" height="40" as="geometry" />
        </mxCell>
        <mxCell id="-tTLAuIsC5wt0zYna_3A-65" style="edgeStyle=orthogonalEdgeStyle;rounded=0;orthogonalLoop=1;jettySize=auto;html=1;" parent="1" source="-tTLAuIsC5wt0zYna_3A-13" edge="1">
          <mxGeometry relative="1" as="geometry">
            <mxPoint x="810" y="530" as="targetPoint" />
          </mxGeometry>
        </mxCell>
        <mxCell id="-tTLAuIsC5wt0zYna_3A-73" style="edgeStyle=orthogonalEdgeStyle;rounded=0;orthogonalLoop=1;jettySize=auto;html=1;dashed=1;" parent="1" source="-tTLAuIsC5wt0zYna_3A-13" edge="1">
          <mxGeometry relative="1" as="geometry">
            <mxPoint x="850" y="490" as="targetPoint" />
          </mxGeometry>
        </mxCell>
        <mxCell id="-tTLAuIsC5wt0zYna_3A-74" style="edgeStyle=orthogonalEdgeStyle;rounded=0;orthogonalLoop=1;jettySize=auto;html=1;dashed=1;" parent="1" source="-tTLAuIsC5wt0zYna_3A-13" edge="1">
          <mxGeometry relative="1" as="geometry">
            <mxPoint x="900" y="510" as="targetPoint" />
          </mxGeometry>
        </mxCell>
        <mxCell id="-tTLAuIsC5wt0zYna_3A-77" style="edgeStyle=orthogonalEdgeStyle;rounded=0;orthogonalLoop=1;jettySize=auto;html=1;dashed=1;" parent="1" source="-tTLAuIsC5wt0zYna_3A-81" edge="1">
          <mxGeometry relative="1" as="geometry">
            <mxPoint x="710" y="560" as="targetPoint" />
          </mxGeometry>
        </mxCell>
        <mxCell id="-tTLAuIsC5wt0zYna_3A-78" style="edgeStyle=orthogonalEdgeStyle;rounded=0;orthogonalLoop=1;jettySize=auto;html=1;dashed=1;" parent="1" source="-tTLAuIsC5wt0zYna_3A-81" edge="1">
          <mxGeometry relative="1" as="geometry">
            <mxPoint x="750" y="490" as="targetPoint" />
          </mxGeometry>
        </mxCell>
        <mxCell id="-tTLAuIsC5wt0zYna_3A-13" value="Bands" style="whiteSpace=wrap;html=1;align=center;" parent="1" vertex="1">
          <mxGeometry x="760" y="180" width="70" height="40" as="geometry" />
        </mxCell>
        <mxCell id="-tTLAuIsC5wt0zYna_3A-52" style="edgeStyle=orthogonalEdgeStyle;rounded=0;orthogonalLoop=1;jettySize=auto;html=1;dashed=1;entryX=0.5;entryY=0;entryDx=0;entryDy=0;" parent="1" source="-tTLAuIsC5wt0zYna_3A-14" target="-tTLAuIsC5wt0zYna_3A-53" edge="1">
          <mxGeometry relative="1" as="geometry">
            <mxPoint x="250" y="280" as="targetPoint" />
            <Array as="points">
              <mxPoint x="250" y="250" />
              <mxPoint x="251" y="250" />
              <mxPoint x="251" y="280" />
            </Array>
          </mxGeometry>
        </mxCell>
        <mxCell id="-tTLAuIsC5wt0zYna_3A-54" style="edgeStyle=orthogonalEdgeStyle;rounded=0;orthogonalLoop=1;jettySize=auto;html=1;dashed=1;" parent="1" source="-tTLAuIsC5wt0zYna_3A-14" edge="1">
          <mxGeometry relative="1" as="geometry">
            <mxPoint x="190" y="280" as="targetPoint" />
          </mxGeometry>
        </mxCell>
        <mxCell id="-tTLAuIsC5wt0zYna_3A-14" value="Register" style="shape=rhombus;double=1;perimeter=rhombusPerimeter;whiteSpace=wrap;html=1;align=center;" parent="1" vertex="1">
          <mxGeometry x="190" y="160" width="120" height="60" as="geometry" />
        </mxCell>
        <mxCell id="-tTLAuIsC5wt0zYna_3A-15" value="Install -Set Up" style="shape=rhombus;double=1;perimeter=rhombusPerimeter;whiteSpace=wrap;html=1;align=center;" parent="1" vertex="1">
          <mxGeometry x="380" y="60" width="120" height="60" as="geometry" />
        </mxCell>
        <mxCell id="-tTLAuIsC5wt0zYna_3A-16" value="Install Set Up" style="shape=rhombus;double=1;perimeter=rhombusPerimeter;whiteSpace=wrap;html=1;align=center;" parent="1" vertex="1">
          <mxGeometry x="390" y="290" width="120" height="60" as="geometry" />
        </mxCell>
        <mxCell id="-tTLAuIsC5wt0zYna_3A-68" style="edgeStyle=orthogonalEdgeStyle;rounded=0;orthogonalLoop=1;jettySize=auto;html=1;dashed=1;" parent="1" source="-tTLAuIsC5wt0zYna_3A-17" edge="1">
          <mxGeometry relative="1" as="geometry">
            <mxPoint x="620" y="290" as="targetPoint" />
          </mxGeometry>
        </mxCell>
        <mxCell id="-tTLAuIsC5wt0zYna_3A-69" style="edgeStyle=orthogonalEdgeStyle;rounded=0;orthogonalLoop=1;jettySize=auto;html=1;dashed=1;" parent="1" source="-tTLAuIsC5wt0zYna_3A-17" target="-tTLAuIsC5wt0zYna_3A-72" edge="1">
          <mxGeometry relative="1" as="geometry">
            <mxPoint x="670" y="280" as="targetPoint" />
          </mxGeometry>
        </mxCell>
        <mxCell id="-tTLAuIsC5wt0zYna_3A-17" value="Book" style="shape=rhombus;double=1;perimeter=rhombusPerimeter;whiteSpace=wrap;html=1;align=center;" parent="1" vertex="1">
          <mxGeometry x="560" y="170" width="120" height="60" as="geometry" />
        </mxCell>
        <mxCell id="-tTLAuIsC5wt0zYna_3A-29" value="" style="edgeStyle=entityRelationEdgeStyle;fontSize=12;html=1;endArrow=ERzeroToMany;endFill=1;rounded=0;exitX=0.5;exitY=1;exitDx=0;exitDy=0;" parent="1" source="-tTLAuIsC5wt0zYna_3A-9" edge="1">
          <mxGeometry width="100" height="100" relative="1" as="geometry">
            <mxPoint x="420" y="230" as="sourcePoint" />
            <mxPoint x="450" y="290" as="targetPoint" />
            <Array as="points">
              <mxPoint x="360" y="230" />
              <mxPoint x="560" y="40" />
              <mxPoint x="400" y="180" />
              <mxPoint x="470" y="160" />
              <mxPoint x="590" />
              <mxPoint x="440" y="250" />
              <mxPoint x="580" y="-10" />
              <mxPoint x="390" y="170" />
            </Array>
          </mxGeometry>
        </mxCell>
        <mxCell id="-tTLAuIsC5wt0zYna_3A-36" value="" style="edgeStyle=entityRelationEdgeStyle;fontSize=12;html=1;endArrow=ERoneToMany;rounded=0;entryX=0.5;entryY=1;entryDx=0;entryDy=0;" parent="1" target="-tTLAuIsC5wt0zYna_3A-9" edge="1">
          <mxGeometry width="100" height="100" relative="1" as="geometry">
            <mxPoint x="420" y="170" as="sourcePoint" />
            <mxPoint x="420" y="70" as="targetPoint" />
            <Array as="points">
              <mxPoint x="430" y="120" />
              <mxPoint x="430" y="150" />
            </Array>
          </mxGeometry>
        </mxCell>
        <mxCell id="-tTLAuIsC5wt0zYna_3A-56" style="edgeStyle=orthogonalEdgeStyle;rounded=0;orthogonalLoop=1;jettySize=auto;html=1;dashed=1;" parent="1" source="-tTLAuIsC5wt0zYna_3A-9" target="-tTLAuIsC5wt0zYna_3A-58" edge="1">
          <mxGeometry relative="1" as="geometry">
            <mxPoint x="560" y="350" as="targetPoint" />
          </mxGeometry>
        </mxCell>
        <mxCell id="-tTLAuIsC5wt0zYna_3A-57" style="edgeStyle=orthogonalEdgeStyle;rounded=0;orthogonalLoop=1;jettySize=auto;html=1;dashed=1;" parent="1" source="-tTLAuIsC5wt0zYna_3A-9" edge="1">
          <mxGeometry relative="1" as="geometry">
            <mxPoint x="530" y="510" as="targetPoint" />
          </mxGeometry>
        </mxCell>
        <mxCell id="-tTLAuIsC5wt0zYna_3A-9" value="Music Festival" style="whiteSpace=wrap;html=1;align=center;" parent="1" vertex="1">
          <mxGeometry x="390" y="170" width="100" height="40" as="geometry" />
        </mxCell>
        <mxCell id="-tTLAuIsC5wt0zYna_3A-37" value="" style="edgeStyle=entityRelationEdgeStyle;fontSize=12;html=1;endArrow=ERoneToMany;rounded=0;exitX=1;exitY=0.5;exitDx=0;exitDy=0;" parent="1" source="-tTLAuIsC5wt0zYna_3A-9" target="-tTLAuIsC5wt0zYna_3A-17" edge="1">
          <mxGeometry width="100" height="100" relative="1" as="geometry">
            <mxPoint x="340" y="260" as="sourcePoint" />
            <mxPoint x="580" y="270" as="targetPoint" />
            <Array as="points">
              <mxPoint x="570" y="240" />
            </Array>
          </mxGeometry>
        </mxCell>
        <mxCell id="-tTLAuIsC5wt0zYna_3A-38" value="" style="edgeStyle=entityRelationEdgeStyle;fontSize=12;html=1;endArrow=ERoneToMany;rounded=0;entryX=0.5;entryY=1;entryDx=0;entryDy=0;exitX=0.5;exitY=0;exitDx=0;exitDy=0;" parent="1" source="-tTLAuIsC5wt0zYna_3A-9" target="-tTLAuIsC5wt0zYna_3A-15" edge="1">
          <mxGeometry width="100" height="100" relative="1" as="geometry">
            <mxPoint x="220" y="230" as="sourcePoint" />
            <mxPoint x="320" y="130" as="targetPoint" />
          </mxGeometry>
        </mxCell>
        <mxCell id="-tTLAuIsC5wt0zYna_3A-39" value="" style="edgeStyle=entityRelationEdgeStyle;fontSize=12;html=1;endArrow=ERoneToMany;rounded=0;entryX=1;entryY=0.5;entryDx=0;entryDy=0;exitX=0;exitY=0.5;exitDx=0;exitDy=0;" parent="1" source="-tTLAuIsC5wt0zYna_3A-9" target="-tTLAuIsC5wt0zYna_3A-14" edge="1">
          <mxGeometry width="100" height="100" relative="1" as="geometry">
            <mxPoint x="260" y="350" as="sourcePoint" />
            <mxPoint x="360" y="250" as="targetPoint" />
          </mxGeometry>
        </mxCell>
        <mxCell id="-tTLAuIsC5wt0zYna_3A-40" value="Number of Set Ups" style="shape=associativeEntity;whiteSpace=wrap;html=1;align=center;" parent="1" vertex="1">
          <mxGeometry x="530" y="80" width="140" height="60" as="geometry" />
        </mxCell>
        <mxCell id="-tTLAuIsC5wt0zYna_3A-41" value="" style="edgeStyle=entityRelationEdgeStyle;fontSize=12;html=1;endArrow=ERoneToMany;rounded=0;exitX=0.5;exitY=1;exitDx=0;exitDy=0;entryX=0.5;entryY=0;entryDx=0;entryDy=0;" parent="1" source="-tTLAuIsC5wt0zYna_3A-40" target="-tTLAuIsC5wt0zYna_3A-17" edge="1">
          <mxGeometry width="100" height="100" relative="1" as="geometry">
            <mxPoint x="740" y="240" as="sourcePoint" />
            <mxPoint x="840" y="140" as="targetPoint" />
          </mxGeometry>
        </mxCell>
        <mxCell id="-tTLAuIsC5wt0zYna_3A-44" value="" style="edgeStyle=entityRelationEdgeStyle;fontSize=12;html=1;endArrow=ERoneToMany;rounded=0;entryX=1;entryY=0.5;entryDx=0;entryDy=0;exitX=0;exitY=0.5;exitDx=0;exitDy=0;" parent="1" source="-tTLAuIsC5wt0zYna_3A-13" target="-tTLAuIsC5wt0zYna_3A-17" edge="1">
          <mxGeometry width="100" height="100" relative="1" as="geometry">
            <mxPoint x="650" y="360" as="sourcePoint" />
            <mxPoint x="750" y="260" as="targetPoint" />
          </mxGeometry>
        </mxCell>
        <mxCell id="-tTLAuIsC5wt0zYna_3A-45" value="" style="edgeStyle=entityRelationEdgeStyle;fontSize=12;html=1;endArrow=ERoneToMany;rounded=0;entryX=0.5;entryY=1;entryDx=0;entryDy=0;exitX=0.5;exitY=0;exitDx=0;exitDy=0;" parent="1" source="-tTLAuIsC5wt0zYna_3A-15" target="-tTLAuIsC5wt0zYna_3A-11" edge="1">
          <mxGeometry width="100" height="100" relative="1" as="geometry">
            <mxPoint x="560" y="60" as="sourcePoint" />
            <mxPoint x="660" y="-40" as="targetPoint" />
          </mxGeometry>
        </mxCell>
        <mxCell id="-tTLAuIsC5wt0zYna_3A-47" value="" style="edgeStyle=entityRelationEdgeStyle;fontSize=12;html=1;endArrow=ERzeroToOne;startArrow=ERmandOne;rounded=0;exitX=1;exitY=0.5;exitDx=0;exitDy=0;entryX=0;entryY=0.5;entryDx=0;entryDy=0;" parent="1" source="-tTLAuIsC5wt0zYna_3A-15" target="-tTLAuIsC5wt0zYna_3A-40" edge="1">
          <mxGeometry width="100" height="100" relative="1" as="geometry">
            <mxPoint x="540" y="60" as="sourcePoint" />
            <mxPoint x="640" y="-40" as="targetPoint" />
          </mxGeometry>
        </mxCell>
        <mxCell id="-tTLAuIsC5wt0zYna_3A-48" value="" style="edgeStyle=entityRelationEdgeStyle;fontSize=12;html=1;endArrow=ERzeroToMany;startArrow=ERzeroToOne;rounded=0;entryX=0.5;entryY=0;entryDx=0;entryDy=0;exitX=0.5;exitY=1;exitDx=0;exitDy=0;" parent="1" source="-tTLAuIsC5wt0zYna_3A-16" target="-tTLAuIsC5wt0zYna_3A-12" edge="1">
          <mxGeometry width="100" height="100" relative="1" as="geometry">
            <mxPoint x="230" y="450" as="sourcePoint" />
            <mxPoint x="330" y="350" as="targetPoint" />
            <Array as="points">
              <mxPoint x="450" y="390" />
            </Array>
          </mxGeometry>
        </mxCell>
        <mxCell id="-tTLAuIsC5wt0zYna_3A-49" value="" style="edgeStyle=entityRelationEdgeStyle;fontSize=12;html=1;endArrow=ERoneToMany;rounded=0;entryX=1;entryY=0.5;entryDx=0;entryDy=0;exitX=0;exitY=0.5;exitDx=0;exitDy=0;" parent="1" source="-tTLAuIsC5wt0zYna_3A-14" target="-tTLAuIsC5wt0zYna_3A-10" edge="1">
          <mxGeometry width="100" height="100" relative="1" as="geometry">
            <mxPoint x="110" y="320" as="sourcePoint" />
            <mxPoint x="210" y="220" as="targetPoint" />
          </mxGeometry>
        </mxCell>
        <mxCell id="-tTLAuIsC5wt0zYna_3A-50" value="Name" style="ellipse;whiteSpace=wrap;html=1;align=center;" parent="1" vertex="1">
          <mxGeometry x="30" y="250" width="100" height="40" as="geometry" />
        </mxCell>
        <mxCell id="-tTLAuIsC5wt0zYna_3A-53" value="Cost" style="ellipse;whiteSpace=wrap;html=1;align=center;" parent="1" vertex="1">
          <mxGeometry x="240" y="280" width="100" height="40" as="geometry" />
        </mxCell>
        <mxCell id="-tTLAuIsC5wt0zYna_3A-55" value="Ticket ID" style="ellipse;whiteSpace=wrap;html=1;align=center;" parent="1" vertex="1">
          <mxGeometry x="130" y="280" width="100" height="40" as="geometry" />
        </mxCell>
        <mxCell id="-tTLAuIsC5wt0zYna_3A-58" value="Adresss" style="ellipse;whiteSpace=wrap;html=1;align=center;" parent="1" vertex="1">
          <mxGeometry x="510" y="330" width="100" height="40" as="geometry" />
        </mxCell>
        <mxCell id="-tTLAuIsC5wt0zYna_3A-59" value="Time" style="ellipse;whiteSpace=wrap;html=1;align=center;" parent="1" vertex="1">
          <mxGeometry x="490" y="500" width="100" height="40" as="geometry" />
        </mxCell>
        <mxCell id="-tTLAuIsC5wt0zYna_3A-60" value="Learning Station" style="shape=associativeEntity;whiteSpace=wrap;html=1;align=center;" parent="1" vertex="1">
          <mxGeometry x="660" y="370" width="140" height="60" as="geometry" />
        </mxCell>
        <mxCell id="-tTLAuIsC5wt0zYna_3A-61" value="" style="edgeStyle=entityRelationEdgeStyle;fontSize=12;html=1;endArrow=ERoneToMany;rounded=0;entryX=1;entryY=0.5;entryDx=0;entryDy=0;exitX=0;exitY=0.5;exitDx=0;exitDy=0;" parent="1" source="-tTLAuIsC5wt0zYna_3A-60" target="-tTLAuIsC5wt0zYna_3A-12" edge="1">
          <mxGeometry width="100" height="100" relative="1" as="geometry">
            <mxPoint x="590" y="570" as="sourcePoint" />
            <mxPoint x="690" y="470" as="targetPoint" />
          </mxGeometry>
        </mxCell>
        <mxCell id="-tTLAuIsC5wt0zYna_3A-62" value="" style="edgeStyle=entityRelationEdgeStyle;fontSize=12;html=1;endArrow=ERoneToMany;rounded=0;entryX=0.5;entryY=1;entryDx=0;entryDy=0;exitX=1;exitY=0.5;exitDx=0;exitDy=0;" parent="1" source="-tTLAuIsC5wt0zYna_3A-60" target="-tTLAuIsC5wt0zYna_3A-13" edge="1">
          <mxGeometry width="100" height="100" relative="1" as="geometry">
            <mxPoint x="730" y="380" as="sourcePoint" />
            <mxPoint x="830" y="280" as="targetPoint" />
          </mxGeometry>
        </mxCell>
        <mxCell id="-tTLAuIsC5wt0zYna_3A-63" value="Name of Band&amp;nbsp;" style="ellipse;whiteSpace=wrap;html=1;align=center;" parent="1" vertex="1">
          <mxGeometry x="760" y="520" width="100" height="40" as="geometry" />
        </mxCell>
        <mxCell id="-tTLAuIsC5wt0zYna_3A-71" value="Booking ID" style="ellipse;whiteSpace=wrap;html=1;align=center;" parent="1" vertex="1">
          <mxGeometry x="560" y="280" width="100" height="40" as="geometry" />
        </mxCell>
        <mxCell id="-tTLAuIsC5wt0zYna_3A-72" value="Time" style="ellipse;whiteSpace=wrap;html=1;align=center;" parent="1" vertex="1">
          <mxGeometry x="620" y="260" width="100" height="40" as="geometry" />
        </mxCell>
        <mxCell id="-tTLAuIsC5wt0zYna_3A-75" value="Ages" style="ellipse;whiteSpace=wrap;html=1;align=center;fontStyle=4;" parent="1" vertex="1">
          <mxGeometry x="860" y="500" width="100" height="40" as="geometry" />
        </mxCell>
        <mxCell id="-tTLAuIsC5wt0zYna_3A-76" value="Instruments" style="ellipse;whiteSpace=wrap;html=1;align=center;fontStyle=4;" parent="1" vertex="1">
          <mxGeometry x="800" y="470" width="100" height="40" as="geometry" />
        </mxCell>
        <mxCell id="-tTLAuIsC5wt0zYna_3A-79" value="Years of Experience" style="ellipse;whiteSpace=wrap;html=1;align=center;" parent="1" vertex="1">
          <mxGeometry x="660" y="540" width="100" height="40" as="geometry" />
        </mxCell>
        <mxCell id="-tTLAuIsC5wt0zYna_3A-80" value="" style="edgeStyle=orthogonalEdgeStyle;rounded=0;orthogonalLoop=1;jettySize=auto;html=1;dashed=1;" parent="1" source="-tTLAuIsC5wt0zYna_3A-13" target="-tTLAuIsC5wt0zYna_3A-81" edge="1">
          <mxGeometry relative="1" as="geometry">
            <mxPoint x="710" y="560" as="targetPoint" />
            <mxPoint x="760" y="200" as="sourcePoint" />
          </mxGeometry>
        </mxCell>
        <mxCell id="-tTLAuIsC5wt0zYna_3A-82" value="" style="edgeStyle=orthogonalEdgeStyle;rounded=0;orthogonalLoop=1;jettySize=auto;html=1;dashed=1;" parent="1" source="-tTLAuIsC5wt0zYna_3A-13" target="-tTLAuIsC5wt0zYna_3A-81" edge="1">
          <mxGeometry relative="1" as="geometry">
            <mxPoint x="750" y="490" as="targetPoint" />
            <mxPoint x="760" y="200" as="sourcePoint" />
          </mxGeometry>
        </mxCell>
        <mxCell id="-tTLAuIsC5wt0zYna_3A-81" value="Name of Members&amp;nbsp;" style="ellipse;whiteSpace=wrap;html=1;align=center;" parent="1" vertex="1">
          <mxGeometry x="700" y="470" width="100" height="40" as="geometry" />
        </mxCell>
      </root>
    </mxGraphModel>
  </diagram>
</mxfile>
